<?xml version="1.0" standalone="no"?>
<!DOCTYPE svg PUBLIC "-//W3C//DTD SVG 20010904//EN"
 "http://www.w3.org/TR/2001/REC-SVG-20010904/DTD/svg10.dtd">
<svg version="1.0" xmlns="http://www.w3.org/2000/svg"
 width="512.000000pt" height="512.000000pt" viewBox="0 0 512.000000 512.000000"
 preserveAspectRatio="xMidYMid meet">
<metadata>
Created by potrace 1.14, written by Peter Selinger 2001-2017
</metadata>
<g transform="translate(0.000000,512.000000) scale(0.100000,-0.100000)"
fill="#000000" stroke="none">
<path d="M2442 4784 c-162 -42 -332 -193 -450 -399 -41 -72 -118 -238 -146
-317 -26 -71 -30 -76 -50 -68 -26 10 -232 56 -291 65 -73 11 -319 14 -380 4
-146 -24 -251 -74 -341 -163 -170 -170 -189 -425 -55 -737 79 -183 193 -358
387 -592 14 -17 11 -23 -34 -75 -129 -152 -243 -324 -322 -487 -91 -187 -121
-308 -116 -465 6 -189 76 -306 245 -415 104 -66 237 -104 350 -99 138 6 250
16 318 29 137 25 140 26 230 53 l32 10 17 -51 c9 -29 20 -56 25 -62 5 -5 9
-15 9 -23 0 -7 24 -64 54 -125 159 -332 365 -521 590 -543 306 -30 568 214
761 708 36 92 39 96 62 87 13 -5 34 -11 46 -14 12 -2 40 -9 62 -15 201 -50
482 -67 605 -36 71 18 200 74 200 87 0 4 8 10 18 13 33 11 133 120 163 178 92
181 72 407 -59 678 -50 104 -163 291 -192 320 -3 3 -25 32 -49 65 -25 33 -65
84 -89 113 l-44 52 44 53 c175 207 325 451 390 637 88 248 74 446 -44 606
-107 148 -287 221 -542 222 -154 1 -269 -15 -459 -63 -39 -10 -72 -14 -76 -9
-4 5 -16 32 -26 59 -64 177 -165 363 -260 480 -46 56 -62 72 -140 140 -44 38
-162 94 -225 105 -69 13 -151 11 -218 -6z m195 -324 c116 -52 247 -238 342
-485 31 -81 32 -95 2 -95 -9 0 -21 -4 -26 -8 -6 -5 -45 -24 -88 -42 -43 -18
-128 -59 -190 -90 l-112 -57 -105 53 c-109 55 -230 111 -290 134 -19 7 -39 16
-43 20 -5 4 9 52 31 106 95 239 214 407 327 460 60 29 96 30 152 4z m-1244
-704 c76 -6 237 -36 305 -57 23 -8 31 -16 28 -27 -3 -10 -10 -44 -17 -77 -7
-33 -13 -64 -15 -70 -1 -5 -5 -28 -8 -50 -4 -22 -11 -65 -16 -95 -5 -30 -12
-75 -15 -100 -3 -25 -7 -56 -10 -70 -2 -14 -7 -54 -10 -90 -7 -73 10 -52 -190
-237 l-99 -91 -64 81 c-191 246 -306 475 -319 638 -12 153 66 230 250 245 40
4 74 8 75 10 2 1 9 1 15 -1 7 -2 47 -6 90 -9z m2577 0 c82 -20 168 -82 189
-138 15 -40 5 -164 -19 -238 -32 -95 -90 -212 -161 -320 -69 -107 -186 -260
-198 -260 -4 0 -46 36 -92 80 -46 43 -107 99 -136 122 -50 42 -51 45 -58 108
-7 76 -14 125 -20 154 -2 12 -6 44 -9 71 -3 28 -8 61 -11 75 -3 14 -8 39 -11
55 -3 17 -14 72 -25 124 -15 75 -16 96 -7 103 29 17 203 52 319 64 35 3 65 7
66 8 5 5 144 -2 173 -8z m-1841 -212 c47 -20 90 -40 95 -44 6 -7 -223 -170
-239 -170 -2 0 -3 6 0 13 2 6 6 30 9 52 4 35 15 90 31 163 3 12 8 22 12 22 3
0 45 -16 92 -36z m980 -16 c21 -104 38 -198 35 -198 -1 0 -59 37 -127 83
l-125 83 31 14 c81 36 163 69 169 70 4 0 11 -24 17 -52z m-314 -354 c169 -112
202 -135 313 -222 l87 -67 2 -65 c5 -123 4 -445 -1 -514 -4 -56 -9 -73 -28
-91 -73 -67 -414 -305 -558 -388 l-46 -26 -84 50 c-124 74 -277 179 -421 286
l-126 95 -3 76 c-4 100 -4 428 0 512 2 36 9 70 15 75 121 99 343 254 504 354
l115 71 45 -27 c26 -14 109 -68 186 -119z m-1189 -609 c-2 -32 -10 -39 -26
-20 -10 12 -10 18 0 30 18 22 27 18 26 -10z m1944 10 c10 -12 10 -18 0 -30
-18 -22 -25 -18 -26 15 -2 33 7 38 26 15z m292 -322 c137 -173 255 -377 298
-516 58 -188 24 -300 -106 -351 -39 -16 -78 -20 -189 -22 -120 -2 -160 2 -285
27 -79 16 -148 33 -152 37 -5 5 1 51 11 103 11 52 23 110 26 129 3 19 8 42 10
50 3 14 7 41 21 150 2 19 6 51 9 70 2 19 7 59 10 88 6 46 12 58 48 90 102 92
164 150 197 184 19 20 36 37 37 37 2 1 31 -34 65 -76z m-2390 -23 c191 -176
177 -157 183 -230 8 -89 41 -311 61 -406 9 -44 17 -86 19 -94 2 -8 6 -27 10
-42 6 -25 4 -27 -47 -41 -301 -87 -596 -73 -678 30 -105 134 9 453 288 806 29
37 58 67 63 65 4 -2 50 -41 101 -88z m658 -522 c105 -70 119 -83 103 -92 -26
-15 -165 -76 -174 -76 -9 0 -27 72 -45 180 -3 19 -8 43 -11 53 -2 9 -2 17 1
17 3 0 59 -37 126 -82z m1030 45 c-5 -21 -11 -51 -13 -68 -3 -16 -8 -41 -11
-55 -3 -14 -8 -38 -10 -54 -3 -16 -8 -31 -10 -34 -7 -7 -190 74 -193 85 -1 7
223 160 238 162 4 1 3 -16 -1 -36z m-235 -478 c50 -21 93 -41 98 -45 15 -13
-95 -260 -166 -371 -80 -125 -195 -219 -267 -219 -57 0 -156 55 -196 110 -7 8
-24 29 -38 45 -30 34 -103 158 -134 225 -17 39 -36 86 -73 179 -6 13 -6 27 -2
31 4 4 49 24 98 45 50 21 146 66 215 100 l124 62 126 -62 c69 -34 166 -79 215
-100z"/>
<path d="M2460 2863 c-85 -30 -152 -90 -191 -171 -33 -68 -33 -197 1 -266 30
-63 93 -126 155 -156 72 -34 199 -34 270 0 164 80 226 263 149 437 -21 48 -93
115 -149 142 -65 30 -172 37 -235 14z"/>
</g>
</svg>
